<svg xmlns="http://www.w3.org/2000/svg" width="1024" height="512" viewBox="0 0 270.933 135.467">
    <g fill="#4480bd" stroke="#182d42" stroke-linejoin="round" stroke-width=".6863"
       aria-label="elucidate" style="paint-order:normal">
        <path d="M62.3904 78.0603q-1.31149 3.95307-3.34022 5.90998-1.98619 1.94551-5.81449 2.9713-4.21113 1.12837-7.05438.38572-2.84325-.74264-4.74704-3.42387-1.91519-2.72376-3.23732-7.65802-1.32213-4.93425-1.01401-8.20816.29672-3.31644 2.38772-5.38122 2.091-2.06477 6.30213-3.19314 4.16859-1.11697 6.91842-.21252t4.56326 3.92902q1.85596 3.01318 3.25258 8.56574L43.72005 76.27q.91405 2.90084 1.99661 4.3888 1.07116 1.44543 2.54102 1.82662 1.5124.3698 3.7243-.22288 1.65893-.44451 2.60002-1.01581.9297-.61384 1.56388-1.65.66532-1.09007 1.44297-3.12207zM47.1266 64.1419q-3.06264.82063-4.12442 2.47285-1.01924 1.64082-.45078 4.95339l11.6125-3.11156q-.8479-2.14352-1.77394-3.21752-.8835-1.08539-2.13763-1.34203-1.25412-.25664-3.12574.24486zM71.6686 87.5274q-3.10385-.3768-4.69734-1.50181-1.59349-1.12501-2.07662-3.35733-.48313-2.23231-.01081-6.12306L67.40464 55.78l-5.50825-.66868.58377-4.80879 10.7542 1.30552-3.10458 25.574q-.35557 2.929.11848 4.13991.47404 1.21092 2.0041 1.39666.74318.09022 1.68119-.32824.98703-.45686 2.81807-1.65412l2.38768 4.81462q-2.1636 1.3787-3.76795 1.80497-1.60437.42629-3.70275.17155zM88.8151 87.6227q-3.61105 0-5.72483-1.10093-2.06975-1.10093-3.03856-3.52297-.92478-2.46608-.92478-6.64962v-16.558h5.28446v16.558q0 2.68627.3523 4.05142.39633 1.32112 1.32112 1.84956.92478.52845 2.7303.52845 2.68628 0 4.00739-.44038 1.36515-.44037 1.84956-1.5413.52844-1.10093.52844-3.25875v-17.747h5.28447v27.215H95.2005v-.26422q-2.42204.88074-6.38539.88074zM112.484 87.2863q-4.3649-.85454-6.64394-2.73666-2.22737-1.91688-2.75875-5.16203-.52292-3.28837.467-8.34473.98991-5.05636 2.7058-7.86155 1.76757-2.83995 4.5881-3.7237 2.87221-.9185 7.28033-.0555 3.80307.74455 5.77959 2.56745 2.02821 1.78814 3.50372 5.71174l-4.87253 1.73847q-.74199-1.94019-1.35914-2.9136-.60869-1.01663-1.50023-1.50528-.88309-.53187-2.4821-.84492-2.63622-.5161-4.2316.06902-1.58691.54191-2.57268 2.36822-.94255 1.83476-1.65325 5.46497-.71071 3.63021-.52963 5.68495.2243 2.0632 1.43802 3.19828 1.22218 1.09186 3.77198 1.59105 1.5558.30459 2.61747.15345 1.06168-.15113 2.04354-.8115 1.03356-.69512 2.49562-2.2038l3.81403 3.43907q-2.88937 3.06906-5.49382 3.99511-2.56124.93452-6.40753.1815zM139.43 82.7786h7.70651v4.84409h-20.6975V82.7786h7.70651V65.2518h-5.54869v-4.84409h10.8332zm-2.81838-25.7177q-2.33397 0-3.4349-.96882-1.05689-1.01286-1.05689-3.21472t1.05689-3.17068q1.10093-1.01286 3.4349-1.01286t3.39086 1.01286q1.10093.96882 1.10093 3.17068t-1.10093 3.21472q-1.05689.96882-3.39086.96882zM161.181 87.0263q-4.00396 1.05058-6.67293.24845-2.66896-.80212-4.46242-3.47297-1.80463-2.71344-3.11226-7.6971-1.30763-4.98365-1.06769-8.23356.22877-3.2925 2.1601-5.30167t5.93529-3.05974q2.59831-.68176 5.79233-.65479l-2.08997-7.96533 5.11144-1.34116 8.94107 34.0763-5.11144 1.34116-.0335-.12778q-2.70648 1.4841-5.38999 2.18822zm-1.2294-4.68549q2.93909-.77117 4.09189-1.75656 1.14164-1.02799.86223-2.09287l-2.59291-9.88212q-.78235-2.98167-2.4402-4.09463-1.65786-1.11295-4.68213-.31943-2.17235.57-3.1415 1.73484-.93772 1.11107-.93476 3.20457.003 2.0935.93061 5.62891.92764 3.53541 1.94171 5.31809 1.01408 1.78267 2.38768 2.33282 1.40503.49637 3.57738-.07362zM182.909 86.9531q-3.90199-.368-6.14296-1.464-2.24096-1.096-3.11539-3.08047t-.58085-5.0973q.33492-3.55125 1.5211-5.34138 1.23415-1.82984 3.58426-2.36016 2.35424-.57416 6.38777-.19375l5.39264.50858.0786-.83301q.16539-1.7537-.22591-2.76373-.34746-1.0059-1.45016-1.50798-1.09856-.54593-3.29068-.75267-1.8414-.17367-2.84315.12995-.95377.26391-1.57085 1.17883-.57324.91906-1.24571 2.89033l-4.92612-1.7031q1.08686-3.08224 2.45255-4.89968 1.40953-1.8133 3.46927-2.54793 2.10773-.77433 5.17672-.4849 5.69954.53753 7.92318 3.22426 2.26748 2.69087 1.79198 7.73278l-.95928 10.1715q-.16126 1.70986.0919 2.30876.30112.5592 1.3095.6543.65764.06201 1.76611.03386l-.45897 4.86653q-.53025-.0058-1.53862-.10087-3.81432-.35973-5.11226-2.07451-1.33924 1.06798-3.13843 1.38485-1.80332.36072-4.34619.1209zm.45483-4.82269q2.19212.20674 3.37752-.16802 1.18953-.4186 1.74373-1.60485.60218-1.22595.82546-3.59346l.1902-2.01676-5.39264-.50858q-2.49903-.23569-3.52809-.11158-1.02905.12411-1.54605.91578-.51698.79166-.70305 2.76458-.14472 1.53449.17544 2.36087.364.83051 1.47083 1.28876t3.38665.67325zM208.083 87.4532q-3.23263-.4117-5.05934-1.75417-1.77746-1.38059-2.3944-3.85638-.61137-2.51947-.11065-6.45106l1.58005-12.4063-5.41686-.68988.61755-4.84896 5.41686.68988.94024-7.38265 5.24212.66763-.94024 7.38265 9.08634 1.15722-.61755 4.84896-9.08635-1.15722-1.58005 12.4063q-.31155 2.44632-.12898 3.80136t.90212 1.9794q.71956.62435 2.16113.80795 1.61633.20585 2.34309.07645.77602-.16753 1.14858-.6528.37811-.52895.99855-1.9149l4.68123 2.28313q-.95569 2.2755-2.17103 3.4525-1.21533 1.177-3.03503 1.52236-1.78158.3946-4.57738.03854zM243.961 78.0603q-1.31149 3.95307-3.34022 5.90998-1.98619 1.94551-5.81449 2.9713-4.21113 1.12837-7.05437.38572-2.84325-.74264-4.74704-3.42387-1.91518-2.72376-3.23731-7.65802-1.32213-4.93425-1.01402-8.20815.29672-3.31644 2.38773-5.38122 2.09099-2.06477 6.30212-3.19314 4.1686-1.11697 6.91843-.21252t4.56325 3.92902q1.85597 3.01318 3.2526 8.56573L225.29058 76.27q.91405 2.90083 1.9966 4.3888 1.07117 1.44543 2.54103 1.82662 1.5124.3698 3.7243-.22288 1.65893-.44451 2.60003-1.01581.9297-.61384 1.56387-1.64998.66532-1.09008 1.44297-3.12208zm-15.2639-13.9184q-3.06263.82063-4.12441 2.47285-1.01924 1.64082-.45078 4.95339l11.6125-3.11156q-.8479-2.14352-1.77394-3.21752-.88352-1.08539-2.13763-1.34203-1.25413-.25664-3.12575.24486z"
              style="paint-order:normal" transform="translate(-27.0795 -11.0958) scale(1.15656)"/>
    </g>
</svg>
